HIERARCHY
ROOT Hips
{
 OFFSET 0.000000 0.000000 0.000000
 CHANNELS 6 Xposition Yposition Zposition Yrotation Xrotation Zrotation
 JOINT Chest
 {
  OFFSET 0.000000 10.366939 -0.000175
  CHANNELS 3 Yrotation Xrotation Zrotation
  JOINT Chest2
  {
   OFFSET 0.000000 11.433790 0.000318
   CHANNELS 3 Yrotation Xrotation Zrotation
   JOINT Chest3
   {
    OFFSET 0.000000 10.331133 0.000000
    CHANNELS 3 Yrotation Xrotation Zrotation
    JOINT Chest4
    {
     OFFSET 0.000000 10.331133 0.000000
     CHANNELS 3 Yrotation Xrotation Zrotation
     JOINT Neck
     {
      OFFSET 0.000000 14.530095 0.000000
      CHANNELS 3 Yrotation Xrotation Zrotation
      JOINT Head
      {
       OFFSET 0.000000 9.616255 0.000757
       CHANNELS 3 Yrotation Xrotation Zrotation
       End Site
       {
        OFFSET 0.000000 18.398191 0.000395
       }
      }
     }
     JOINT RightCollar
     {
      OFFSET -3.159467 8.107572 0.000000
      CHANNELS 3 Yrotation Xrotation Zrotation
      JOINT RightShoulder
      {
       OFFSET -14.759419 0.000000 0.000000
       CHANNELS 3 Yrotation Xrotation Zrotation
       JOINT RightElbow
       {
        OFFSET 0.000000 -31.561777 0.000000
        CHANNELS 3 Yrotation Xrotation Zrotation
        JOINT RightWrist
        {
         OFFSET 0.000000 -25.811607 0.000000
         CHANNELS 3 Yrotation Xrotation Zrotation
         End Site
         {
          OFFSET 0.000000 -19.296333 0.000000
         }
        }
       }
      }
     }
     JOINT LeftCollar
     {
      OFFSET 3.159467 8.107572 0.000000
      CHANNELS 3 Yrotation Xrotation Zrotation
      JOINT LeftShoulder
      {
       OFFSET 14.759419 0.000000 0.000000
       CHANNELS 3 Yrotation Xrotation Zrotation
       JOINT LeftElbow
       {
        OFFSET 0.000000 -31.561777 0.000000
        CHANNELS 3 Yrotation Xrotation Zrotation
        JOINT LeftWrist
        {
         OFFSET 0.000000 -25.811607 0.000000
         CHANNELS 3 Yrotation Xrotation Zrotation
         End Site
         {
          OFFSET 0.000000 -19.296333 0.000000
         }
        }
       }
      }
     }
    }
   }
  }
 }
 JOINT RightHip
 {
  OFFSET -8.420485 0.000859 0.000088
  CHANNELS 3 Yrotation Xrotation Zrotation
  JOINT RightKnee
  {
   OFFSET 0.000000 -43.611855 -0.000083
   CHANNELS 3 Yrotation Xrotation Zrotation
   JOINT RightAnkle
   {
    OFFSET 0.000000 -42.630478 -0.000140
    CHANNELS 3 Yrotation Xrotation Zrotation
    JOINT RightToe
    {
     OFFSET 0.000000 -7.539428 17.119853
     CHANNELS 3 Yrotation Xrotation Zrotation
     End Site
     {
      OFFSET 0.000000 -1.595212 6.940629
     }
    }
   }
  }
 }
 JOINT LeftHip
 {
  OFFSET 8.420485 0.000859 0.000088
  CHANNELS 3 Yrotation Xrotation Zrotation
  JOINT LeftKnee
  {
   OFFSET 0.000000 -43.611855 -0.000083
   CHANNELS 3 Yrotation Xrotation Zrotation
   JOINT LeftAnkle
   {
    OFFSET 0.000000 -42.630478 -0.000140
    CHANNELS 3 Yrotation Xrotation Zrotation
    JOINT LeftToe
    {
     OFFSET 0.000000 -7.539428 17.119853
     CHANNELS 3 Yrotation Xrotation Zrotation
     End Site
     {
      OFFSET 0.000000 -1.595212 6.940629
     }
    }
   }
  }
 }
}
MOTION
Frames: 15
Frame Time: 0.008333
408.358078 46.917473 122.118782 -79.381889 -15.221407 1.132377 1.159725 12.794886 -0.298828 0.311347 5.615998 -0.574914 0.311347 5.615998 -0.574914 0.238621 4.211712 -0.433709 2.385104 11.849742 0.261601 4.454451 -14.149992 -0.526984 0.133601 3.964120 11.198620 3.034441 -25.023200 -25.401803 68.530869 -49.509232 -37.454160 20.212127 -8.963425 10.258960 0.830084 1.811269 -8.840458 -0.937166 -27.452114 13.456894 -51.081807 -29.662243 15.284747 -22.229421 -2.081520 -12.538528 -9.898078 -78.337047 -11.869160 174.434536 67.225031 167.957146 2.383574 -19.385956 1.304943 -0.311116 0.821385 -0.142894 -17.780974 -79.318087 43.598166 -147.128459 63.134967 -148.653832 0.431725 -14.061909 -1.366108 -0.459207 -1.207900 -0.220413
408.359157 46.915264 122.118062 -79.381024 -15.224414 1.129236 1.153520 12.795981 -0.292853 0.306499 5.618663 -0.573507 0.306499 5.618663 -0.573507 0.234977 4.213716 -0.432611 2.321786 11.837682 0.257103 4.335516 -14.173997 -0.508798 0.146876 3.957059 11.181454 3.027189 -25.028899 -25.384165 68.528663 -49.509870 -37.452638 20.212686 -8.963130 10.262528 0.842090 1.814767 -8.843866 -0.936099 -27.464450 13.453848 -51.086726 -29.609236 15.275417 -22.196566 -2.120841 -12.503306 -9.903898 -78.333119 -11.867558 174.421493 67.226315 167.948725 2.387603 -19.392905 1.299893 -0.309955 0.828570 -0.141740 -17.823440 -79.309755 43.638906 -147.139921 63.136482 -148.672461 0.428547 -14.076170 -1.363290 -0.465873 -1.205292 -0.219045
408.359078 46.913473 122.119297 -79.367859 -15.233371 1.135616 1.132892 12.804587 -0.297723 0.303272 5.621253 -0.573815 0.303272 5.621253 -0.573815 0.232564 4.215661 -0.432813 2.241901 11.823795 0.246599 4.187474 -14.201591 -0.495011 0.152640 3.951113 11.179912 3.037972 -25.030474 -25.382573 68.525268 -49.510562 -37.454016 20.212089 -8.961616 10.257275 0.847400 1.817278 -8.835959 -0.932503 -27.468734 13.443149 -51.083909 -29.595885 15.283344 -22.180112 -2.133373 -12.492856 -9.891198 -78.326078 -11.894770 174.427851 67.222568 167.949755 2.379387 -19.406697 1.300571 -0.303499 0.836118 -0.139221 -17.766877 -79.304242 43.568913 -147.165862 63.143411 -148.702070 0.427167 -14.088271 -1.356976 -0.476156 -1.203732 -0.218669
408.359119 46.911375 122.120044 -79.366533 -15.243305 1.140756 1.126797 12.810915 -0.295390 0.300248 5.623442 -0.573631 0.300248 5.623442 -0.573631 0.230299 4.217305 -0.432648 2.143454 11.809371 0.234017 4.004766 -14.230531 -0.477182 0.158378 3.945291 11.176331 3.047099 -25.030381 -25.384854 68.524928 -49.508908 -37.458990 20.201267 -8.953480 10.255321 0.856634 1.823475 -8.835333 -0.941271 -27.476420 13.438260 -51.085019 -29.545335 15.275113 -22.151664 -2.168551 -12.450534 -9.850674 -78.320271 -11.940599 174.420457 67.219593 167.944591 2.381271 -19.408252 1.300651 -0.302870 0.837238 -0.140075 -17.726762 -79.299263 43.530396 -147.173200 63.140104 -148.711666 0.427673 -14.096451 -1.356667 -0.480665 -1.207202 -0.213909
408.358740 46.907983 122.119852 -79.366725 -15.247361 1.143496 1.117928 12.817470 -0.289363 0.297636 5.623021 -0.571546 0.297636 5.623021 -0.571546 0.228321 4.216993 -0.431061 2.031646 11.798194 0.215266 3.799006 -14.253485 -0.465245 0.166767 3.946437 11.169360 3.047903 -25.039314 -25.382180 68.531164 -49.504251 -37.461994 20.192762 -8.962854 10.254503 0.871567 1.836031 -8.838773 -0.945311 -27.490966 13.422426 -51.090658 -29.527433 15.277747 -22.130033 -2.168345 -12.433865 -9.846265 -78.320201 -11.948592 174.443990 67.217641 167.967373 2.385804 -19.412890 1.298123 -0.300453 0.840491 -0.138786 -17.717406 -79.298478 43.518993 -147.184368 63.135488 -148.719820 0.431612 -14.109002 -1.366748 -0.483334 -1.208341 -0.208600
408.360151 46.905248 122.118234 -79.358110 -15.247385 1.139555 1.106884 12.811795 -0.281099 0.294190 5.623592 -0.568347 0.294190 5.623592 -0.568347 0.225710 4.217426 -0.428632 1.905425 11.789491 0.198777 3.564565 -14.272139 -0.442633 0.176494 3.949630 11.162391 3.041662 -25.044248 -25.376580 68.537716 -49.506126 -37.473707 20.183950 -8.965381 10.262291 0.887150 1.847048 -8.847244 -0.945411 -27.499673 13.408091 -51.109824 -29.470182 15.274287 -22.096805 -2.197328 -12.397228 -9.874818 -78.321715 -11.926347 174.441345 67.216511 167.962906 2.390629 -19.414431 1.295320 -0.297881 0.841956 -0.137167 -17.746786 -79.301788 43.544008 -147.187945 63.135365 -148.722313 0.427621 -14.114013 -1.375069 -0.483164 -1.209900 -0.202198
408.359334 46.902015 122.116116 -79.359733 -15.255020 1.140288 1.098919 12.821729 -0.274113 0.290109 5.624319 -0.566126 0.290109 5.624319 -0.566126 0.222632 4.217976 -0.426930 1.772135 11.782140 0.179588 3.317687 -14.288209 -0.422055 0.196359 3.955074 11.153377 3.045467 -25.053151 -25.375786 68.546851 -49.511871 -37.489103 20.170738 -8.958187 10.264013 0.908102 1.853425 -8.847219 -0.950342 -27.503846 13.387274 -51.115917 -29.454479 15.283353 -22.076755 -2.189915 -12.387445 -9.868794 -78.316622 -11.928001 174.449168 67.213021 167.969434 2.401457 -19.417720 1.292824 -0.292847 0.843245 -0.136008 -17.736998 -79.296231 43.540854 -147.195364 63.131540 -148.731204 0.430179 -14.127788 -1.379264 -0.490218 -1.209540 -0.199695
408.361280 46.898367 122.116197 -79.347812 -15.252780 1.147846 1.074018 12.820931 -0.278476 0.287174 5.625856 -0.564021 0.287174 5.625856 -0.564021 0.220414 4.219132 -0.425326 1.628588 11.774771 0.165619 3.048873 -14.304484 -0.387005 0.211065 3.958802 11.144605 3.046700 -25.068886 -25.374390 68.552292 -49.522632 -37.496116 20.162192 -8.957475 10.265442 0.926999 1.858313 -8.850251 -0.955038 -27.510426 13.364251 -51.129890 -29.393978 15.295601 -22.051038 -2.216525 -12.359850 -9.819073 -78.324167 -11.988616 174.462415 67.208910 167.982581 2.401292 -19.423382 1.298649 -0.289355 0.847293 -0.136942 -17.705781 -79.304738 43.499668 -147.202669 63.135620 -148.741218 0.429867 -14.133044 -1.383677 -0.495386 -1.209478 -0.197296
408.361553 46.895479 122.114710 -79.341127 -15.253990 1.149280 1.059553 12.826414 -0.274573 0.283051 5.627665 -0.561786 0.283051 5.627665 -0.561786 0.217305 4.220494 -0.423614 1.477354 11.768658 0.150578 2.765735 -14.318319 -0.350607 0.222263 3.959440 11.135283 3.047209 -25.078547 -25.371453 68.567583 -49.526638 -37.514584 20.145063 -8.966015 10.264865 0.946358 1.859861 -8.855980 -0.963004 -27.517193 13.351767 -51.132100 -29.375985 15.307947 -22.049043 -2.210203 -12.364495 -9.806449 -78.323149 -12.006771 174.477101 67.208113 167.993889 2.429504 -19.431956 1.294395 -0.287068 0.852888 -0.135357 -17.713423 -79.305200 43.508147 -147.206377 63.137807 -148.749395 0.420824 -14.138381 -1.386454 -0.492046 -1.209246 -0.195056
408.362202 46.892844 122.114531 -79.347019 -15.256201 1.158731 1.048654 12.831641 -0.279536 0.278909 5.629383 -0.561674 0.278909 5.629383 -0.561674 0.214202 4.221786 -0.423492 1.324505 11.763799 0.143011 2.476219 -14.329764 -0.299122 0.243888 3.962590 11.130881 3.046943 -25.092611 -25.364513 68.574360 -49.533783 -37.528214 20.141948 -8.971836 10.266090 0.965799 1.861214 -8.853312 -0.961690 -27.522891 13.339759 -51.136409 -29.326472 15.314311 -22.036679 -2.226711 -12.354402 -9.748658 -78.325930 -12.060112 174.488455 67.206732 168.007916 2.440312 -19.433731 1.290347 -0.285483 0.856481 -0.133107 -17.668481 -79.310999 43.467612 -147.210230 63.134435 -148.755271 0.433158 -14.135801 -1.383111 -0.500548 -1.215934 -0.201337
408.363763 46.891024 122.115797 -79.345413 -15.252006 1.166792 1.033675 12.835422 -0.285631 0.272143 5.631109 -0.562457 0.272143 5.631109 -0.562457 0.209140 4.223086 -0.424017 1.170709 11.761121 0.135985 2.184596 -14.336894 -0.246112 0.270056 3.961536 11.130898 3.067285 -25.104264 -25.369345 68.565454 -49.536424 -37.536512 20.132702 -8.975017 10.270554 0.992373 1.857431 -8.849812 -0.950820 -27.527498 13.326092 -51.153903 -29.317851 15.321735 -22.050408 -2.214588 -12.360770 -9.713008 -78.333372 -12.099102 174.485602 67.207350 168.004221 2.437598 -19.435308 1.292165 -0.287921 0.861368 -0.132262 -17.623675 -79.322377 43.417855 -147.216887 63.136063 -148.759203 0.435493 -14.131072 -1.383678 -0.499975 -1.219722 -0.204109
408.363636 46.890476 122.116083 -79.358975 -15.256046 1.173966 1.030845 12.845187 -0.288608 0.268143 5.634575 -0.562756 0.268143 5.634575 -0.562756 0.206148 4.225690 -0.424205 1.012678 11.756588 0.131358 1.883827 -14.347268 -0.186675 0.281921 3.961522 11.125544 3.082241 -25.121718 -25.356769 68.574653 -49.534379 -37.553649 20.119197 -8.988373 10.281576 1.011188 1.847870 -8.851716 -0.943616 -27.524623 13.326867 -51.166962 -29.277810 15.326010 -22.048516 -2.229512 -12.348311 -9.667075 -78.333476 -12.133057 174.484932 67.208229 168.004591 2.446528 -19.426361 1.292401 -0.291362 0.858230 -0.133182 -17.569215 -79.322879 43.380703 -147.231888 63.138464 -148.770498 0.426196 -14.124260 -1.382490 -0.497334 -1.224915 -0.204856
408.363424 46.890621 122.116560 -79.367701 -15.256596 1.180275 1.025464 12.851716 -0.292212 0.263412 5.636870 -0.563660 0.263412 5.636870 -0.563660 0.202614 4.227415 -0.424840 0.853578 11.754868 0.124860 1.581765 -14.352083 -0.130290 0.295123 3.963637 11.124360 3.107009 -25.133183 -25.355488 68.571027 -49.537430 -37.570602 20.108776 -9.007437 10.291734 1.025059 1.852092 -8.848791 -0.930652 -27.527030 13.326208 -51.176767 -29.280193 15.347833 -22.059224 -2.220373 -12.362958 -9.661218 -78.334889 -12.127169 174.498548 67.210291 168.011833 2.434404 -19.422969 1.299323 -0.288752 0.858388 -0.132321 -17.544300 -79.320374 43.367703 -147.240418 63.143164 -148.782467 0.417794 -14.119950 -1.382747 -0.494897 -1.224763 -0.204358
408.364635 46.890242 122.116127 -79.365211 -15.251313 1.184578 1.005246 12.855008 -0.300528 0.257123 5.638690 -0.565747 0.257123 5.638690 -0.565747 0.197921 4.228785 -0.426346 0.701485 11.756191 0.124367 1.290494 -14.350937 -0.065379 0.315777 3.954762 11.125999 3.124055 -25.138015 -25.347982 68.583037 -49.536567 -37.588162 20.097983 -9.021041 10.295933 1.041366 1.852235 -8.846877 -0.921502 -27.533100 13.337500 -51.190472 -29.246106 15.360776 -22.052366 -2.250067 -12.355189 -9.650032 -78.344096 -12.136151 174.500386 67.208058 168.012535 2.431980 -19.419292 1.294144 -0.278993 0.857360 -0.125873 -17.540186 -79.327029 43.364242 -147.240195 63.148931 -148.785675 0.414109 -14.106294 -1.380937 -0.495244 -1.225400 -0.206161
408.362710 46.891647 122.114942 -79.383000 -15.257206 1.185657 1.000590 12.866540 -0.303931 0.251726 5.641961 -0.567913 0.251726 5.641961 -0.567913 0.193900 4.231242 -0.427921 0.555469 11.759025 0.125591 1.010120 -14.346648 0.000202 0.346740 3.949248 11.125312 3.145957 -25.147698 -25.342322 68.580406 -49.532454 -37.597816 20.096548 -9.041551 10.287530 1.052275 1.851716 -8.848138 -0.913401 -27.532197 13.356736 -51.201609 -29.256475 15.383784 -22.051095 -2.241340 -12.365869 -9.677107 -78.338533 -12.090419 174.486789 67.208942 167.992500 2.431293 -19.413030 1.297943 -0.283461 0.855021 -0.129294 -17.539788 -79.318976 43.387248 -147.242520 63.146100 -148.790180 0.409443 -14.096143 -1.380096 -0.492245 -1.230045 -0.206368
